<svg width="40" height="40" fill="none" xmlns="http://www.w3.org/2000/svg"><g clip-path="url(#clip0_73_519)" fill="#E31E24"><path d="M31.633 20.77a.781.781 0 01-.782-.78v.02c0-.425.356-.78.782-.78.425 0 .78.355.78.78v-.02a.78.78 0 01-.78.78z"/><path d="M21.506 40h-3.012a2.74 2.74 0 01-2.72-2.416l-.172-1.448a16.597 16.597 0 01-3.9-1.617l-1.148.903a2.74 2.74 0 01-3.631-.215l-2.13-2.13a2.74 2.74 0 01-.215-3.631l.903-1.148a16.592 16.592 0 01-1.617-3.9l-1.448-.172A2.74 2.74 0 010 21.506v-3.012a2.74 2.74 0 012.416-2.72l1.448-.172a16.603 16.603 0 011.617-3.9l-.903-1.148a2.74 2.74 0 01.215-3.631l2.13-2.13a2.74 2.74 0 013.631-.215l1.148.903a16.595 16.595 0 013.9-1.617l.172-1.448A2.74 2.74 0 0118.494 0h3.012a2.74 2.74 0 012.72 2.416l.172 1.448c1.364.371 2.672.913 3.9 1.617l1.148-.903a2.74 2.74 0 013.631.215l2.13 2.13a2.74 2.74 0 01.215 3.631l-.903 1.148a16.593 16.593 0 011.617 3.9l1.448.172A2.74 2.74 0 0140 18.494v3.012a2.74 2.74 0 01-2.416 2.72l-1.448.172a16.597 16.597 0 01-1.617 3.9l.903 1.148a2.74 2.74 0 01-.215 3.631l-2.13 2.13a2.74 2.74 0 01-3.631.215l-1.148-.903a16.59 16.59 0 01-3.9 1.617l-.172 1.448A2.74 2.74 0 0121.506 40zm-9.866-7.208a.78.78 0 01.41.116 15.09 15.09 0 004.444 1.843.78.78 0 01.596.668l.236 1.98c.07.592.572 1.038 1.168 1.038h3.012c.596 0 1.098-.446 1.169-1.037l.235-1.982a.781.781 0 01.596-.667 15.047 15.047 0 004.444-1.843.782.782 0 01.893.051l1.57 1.235a1.177 1.177 0 001.56-.092l2.13-2.13a1.178 1.178 0 00.092-1.56l-1.236-1.569a.781.781 0 01-.05-.893 15.046 15.046 0 001.842-4.444.781.781 0 01.668-.596l1.98-.236a1.177 1.177 0 001.039-1.168v-3.012c0-.596-.447-1.098-1.038-1.169l-1.981-.235a.781.781 0 01-.668-.596 15.046 15.046 0 00-1.843-4.444.782.782 0 01.051-.894l1.236-1.569a1.177 1.177 0 00-.093-1.56l-2.13-2.13a1.178 1.178 0 00-1.56-.092l-1.569 1.236a.781.781 0 01-.893.05 15.044 15.044 0 00-4.444-1.842.781.781 0 01-.596-.668l-.236-1.98a1.177 1.177 0 00-1.168-1.038h-3.012c-.596 0-1.098.446-1.169 1.037l-.235 1.981a.781.781 0 01-.596.668c-1.57.372-3.066.992-4.444 1.843a.782.782 0 01-.894-.051L9.588 5.805a1.178 1.178 0 00-1.56.093l-2.13 2.13a1.177 1.177 0 00-.093 1.56l1.236 1.569a.781.781 0 01.05.893 15.039 15.039 0 00-1.842 4.444.781.781 0 01-.668.596l-1.98.236a1.177 1.177 0 00-1.038 1.168v3.012c0 .596.446 1.098 1.037 1.169l1.982.235a.781.781 0 01.668.596 15.02 15.02 0 001.842 4.444.781.781 0 01-.051.893l-1.236 1.57a1.178 1.178 0 00.093 1.56l2.13 2.13c.42.42 1.092.46 1.56.092l1.569-1.236a.78.78 0 01.483-.167zm8.36-.378c-6.845 0-12.414-5.569-12.414-12.414S13.155 7.586 20 7.586c2.759 0 5.37.886 7.553 2.562a12.5 12.5 0 014.394 6.47.781.781 0 11-1.503.425C29.13 12.395 24.836 9.149 20 9.149 14.017 9.149 9.149 14.017 9.149 20c0 5.983 4.868 10.851 10.851 10.851 4.841 0 9.137-3.25 10.447-7.905a.781.781 0 111.504.424 12.499 12.499 0 01-4.393 6.479A12.298 12.298 0 0120 32.413z"/><path d="M16.956 28.131a.78.78 0 01-.765-.94l1.17-5.617h-2.675a.781.781 0 01-.698-1.132l4.08-8.143a.781.781 0 01.699-.43h5.273a.781.781 0 01.664 1.192l-2.444 3.942h3.054a.781.781 0 01.588 1.295l-8.358 9.566a.78.78 0 01-.588.267zm-1.004-8.12h2.37a.781.781 0 01.765.94l-.758 3.64 5.265-6.026h-2.738a.781.781 0 01-.664-1.193l2.444-3.941H19.25l-3.297 6.58z"/></g><defs><clipPath id="clip0_73_519"><path fill="#fff" d="M0 0h40v40H0z"/></clipPath></defs></svg>