<svg width="40" height="40" fill="none" xmlns="http://www.w3.org/2000/svg"><g clip-path="url(#clip0_73_575)" fill="#E31E24"><path d="M13.891 22.631a4.679 4.679 0 004.673-4.674 4.679 4.679 0 00-6.69-4.217 4.065 4.065 0 00-3.28-1.666 4.069 4.069 0 00-3.998 3.345A3.897 3.897 0 000 19.247c0 2.08 1.64 3.785 3.696 3.888a5.388 5.388 0 004.766 2.92 5.36 5.36 0 003.358-1.185 5.384 5.384 0 001.64-2.259c.143.014.287.02.431.02zm-1.382-1.572a.78.78 0 00-.355.494 3.767 3.767 0 01-3.692 2.94 3.811 3.811 0 01-3.536-2.43.781.781 0 00-.805-.497 2.333 2.333 0 01-2.559-2.319 2.333 2.333 0 013.409-2.065.781.781 0 001.138-.775 2.502 2.502 0 012.485-2.77c.99 0 1.888.585 2.288 1.492a.781.781 0 001.175.315 3.085 3.085 0 011.834-.598 3.115 3.115 0 013.111 3.111 3.115 3.115 0 01-3.892 3.013.782.782 0 00-.601.09zm.682-12.5c.159 0 .316-.01.47-.029a4.732 4.732 0 004.616 3.727 4.735 4.735 0 003.817-1.945l.122.002a3.754 3.754 0 003.75-3.75 3.769 3.769 0 00-2.713-3.603A4.457 4.457 0 0019.04 0a4.458 4.458 0 00-3.6 1.811 3.751 3.751 0 00-2.248-.75 3.753 3.753 0 00-3.75 3.749 3.753 3.753 0 003.75 3.749zm0-5.936c.707 0 1.373.345 1.784.922a.781.781 0 001.36-.16 2.905 2.905 0 012.704-1.823c1.359 0 2.526.923 2.837 2.244a.781.781 0 00.651.594 2.195 2.195 0 011.876 2.164 2.19 2.19 0 01-2.569 2.153.78.78 0 00-.814.382 3.168 3.168 0 01-2.743 1.595 3.164 3.164 0 01-3.159-3.148.78.78 0 00-1.082-.718 2.19 2.19 0 01-3.032-2.018 2.19 2.19 0 012.187-2.187zM31.36 13.806a.786.786 0 00.552-.228.787.787 0 00.229-.553.788.788 0 00-.23-.552.787.787 0 00-.551-.229.787.787 0 00-.553.229.787.787 0 00-.229.552.786.786 0 00.781.78z"/><path d="M39.945 7.867a1.44 1.44 0 00-.673-.878l-2.746-1.585a1.437 1.437 0 00-1.096-.144c-.373.1-.685.339-.878.673l-2.374 4.112a.782.782 0 001.353.781l2.316-4.01 2.542 1.467-8.309 14.391-2.542-1.468 2.868-4.967a.78.78 0 10-1.353-.781l-2.868 4.967-.893-.515a.783.783 0 00-1.067.286l-1.785 3.093a.78.78 0 00-.334.1l-8.418 4.847a.78.78 0 00-.388.754c.383 3.896 2.52 7.26 5.87 9.263h.002l.163.098A12.12 12.12 0 0025.413 40c1.706 0 3.42-.367 5.046-1.104a.781.781 0 00.458-.712l-.012-9.714a.775.775 0 00-.08-.34l1.787-3.092a.781.781 0 00-.286-1.067l-.893-.515L39.8 8.963c.193-.334.245-.724.145-1.096zM26.616 38.365l.497-4.696a.781.781 0 10-1.554-.164l-.514 4.857-.003.066a10.539 10.539 0 01-4.406-1.148l2.894-5.013a.781.781 0 10-1.353-.78l-2.88 4.988a10.498 10.498 0 01-3.06-3.323l3.854-2.804a.781.781 0 00-.92-1.264l-3.625 2.639a10.713 10.713 0 01-.631-2.39l7.58-4.365 6.849 3.954.01 8.747c-.893.358-1.812.589-2.738.696zm2.925-11.133l-2.84-1.64-2.84-1.64 1.327-2.299 5.68 3.28-1.327 2.3zM7.606 34.213a3.706 3.706 0 01-3.702-3.702.781.781 0 00-1.562 0 5.27 5.27 0 005.264 5.264.781.781 0 000-1.562z"/><path d="M36.163 28.09a.781.781 0 00-.781.781c0 .828-.674 1.5-1.501 1.5a.781.781 0 000 1.563 3.067 3.067 0 003.063-3.063.781.781 0 00-.781-.781zm-27.297-.243a.786.786 0 00-.782.78c0 .206.084.408.23.553a.788.788 0 00.552.229.787.787 0 00.552-.229.788.788 0 00.229-.552.785.785 0 00-.781-.781zm1.864 6.366a.785.785 0 00-.781.781c0 .206.084.407.229.552a.786.786 0 00.552.23.787.787 0 00.552-.23.787.787 0 00.23-.552.787.787 0 00-.23-.552.787.787 0 00-.552-.23zm-7.607 2.583a.786.786 0 00-.781.78.785.785 0 00.78.782.788.788 0 00.553-.229.787.787 0 00.229-.552.786.786 0 00-.229-.552.788.788 0 00-.552-.23zm31.019-.739a.784.784 0 00-.782.78c0 .206.083.407.229.553a.788.788 0 00.553.229.79.79 0 00.552-.229.788.788 0 00.228-.552.788.788 0 00-.228-.553.785.785 0 00-.552-.228z"/></g><defs><clipPath id="clip0_73_575"><path fill="#fff" d="M0 0h40v40H0z"/></clipPath></defs></svg>