<svg width="40" height="40" fill="none" xmlns="http://www.w3.org/2000/svg"><g clip-path="url(#clip0_73_550)" fill="#E31E24"><path d="M39.994 5.534A5.54 5.54 0 0034.461 0a5.542 5.542 0 00-5.409 4.367h-7.675a3.881 3.881 0 00-2.762 1.143L1.15 22.971a3.88 3.88 0 00-1.144 2.762 3.88 3.88 0 001.144 2.762l10.36 10.36A3.88 3.88 0 0014.272 40a3.88 3.88 0 002.762-1.144l6.043-6.043a.781.781 0 00-1.105-1.104l-6.043 6.042c-.913.914-2.4.914-3.314 0L2.255 27.39a2.328 2.328 0 01-.687-1.658c0-.626.244-1.214.687-1.657L19.72 6.616a2.328 2.328 0 011.657-.687h7.566a5.492 5.492 0 001.605 3.517.781.781 0 101.105-1.104 3.941 3.941 0 01-1.144-2.413h1.229a2.346 2.346 0 012.343 2.344v10.355c0 .627-.244 1.215-.686 1.658l-6.452 6.451a.781.781 0 001.105 1.105l6.452-6.451a3.88 3.88 0 001.144-2.762v-7.69a5.513 5.513 0 004.35-5.405zm-4.35 3.792V8.273a3.91 3.91 0 00-3.906-3.907h-1.073a3.978 3.978 0 013.796-2.804 3.976 3.976 0 013.97 3.972 3.957 3.957 0 01-2.787 3.792z"/><path d="M10.78 25.691a.781.781 0 10-1.105-1.105l-1.881 1.88a.781.781 0 000 1.106l4.64 4.64a.78.78 0 001.105 0 .781.781 0 000-1.105l-1.812-1.812 1.179-1.179a.781.781 0 00-1.105-1.104l-1.179 1.178-1.171-1.17 1.328-1.329zm9.221-.264a.781.781 0 00.049-1.561l-2.583-.165c.217-.373.34-.795.354-1.234a2.42 2.42 0 00-.703-1.808c-.97-.97-2.577-.94-3.585.068L12.3 21.96l-.001.002a.781.781 0 000 1.105l4.64 4.64a.779.779 0 001.105 0 .781.781 0 000-1.105l-1.387-1.387 3.293.21a.787.787 0 00.051.002zm-5.363-3.595c.392-.391 1.021-.423 1.376-.068a.872.872 0 01.245.654c-.008.267-.122.53-.314.72l-.673.678-.658-.653-.655-.652.68-.68zm12.972-3.691l1.955-1.955a.781.781 0 00-1.105-1.105l-1.403 1.403-1.215-1.216L27.1 14.01a.781.781 0 00-1.105-1.105l-1.258 1.259-1.215-1.216 1.402-1.402a.781.781 0 10-1.104-1.105l-1.956 1.955a.781.781 0 000 1.105l2.32 2.32 2.32 2.32a.781.781 0 001.105 0zm-5.084 4.76a.782.782 0 00.553-.229l1.955-1.955a.781.781 0 00-1.105-1.105l-1.403 1.403-1.215-1.215 1.259-1.259a.781.781 0 00-1.105-1.105l-1.259 1.259-1.215-1.215 1.403-1.403a.781.781 0 00-1.105-1.105l-1.956 1.955a.781.781 0 000 1.105l4.64 4.64a.781.781 0 00.553.23zm2.484 6.093a.787.787 0 00-.552.229.787.787 0 00-.23.552.787.787 0 00.781.781.787.787 0 00.553-.228.787.787 0 00.23-.553.787.787 0 00-.23-.552.787.787 0 00-.552-.229z"/></g><defs><clipPath id="clip0_73_550"><path fill="#fff" d="M0 0h40v40H0z"/></clipPath></defs></svg>