<svg width="40" height="40" fill="none" xmlns="http://www.w3.org/2000/svg"><g clip-path="url(#clip0_73_640)" fill="#E31E24"><path d="M37.128 13.224h-3.089L30.86 10.8a.781.781 0 00-1.255.622v1.91a2.878 2.878 0 00-2.09 2.764v3.91a2.875 2.875 0 002.872 2.872h6.742A2.875 2.875 0 0040 20.006v-3.91a2.875 2.875 0 00-2.872-2.872zm1.31 6.782c0 .723-.588 1.31-1.31 1.31h-6.742a1.31 1.31 0 01-1.31-1.31v-3.91c0-.722.587-1.31 1.31-1.31.43 0 .78-.35.78-.78v-1.007l2.136 1.627a.78.78 0 00.474.16h3.352c.722 0 1.31.588 1.31 1.31v3.91z"/><path d="M.192 39.408a.78.78 0 00.59.27h33.91a.781.781 0 00.774-.891l-1.334-9.461a5.967 5.967 0 00-4.302-4.91l-7.028-1.73h-.005l-.004-.002a.427.427 0 01-.329-.371l-.278-2.643c2.28-1.465 3.726-4.125 3.7-6.842v-1.592a.782.782 0 001.243-.63v-.89c0-5.18-4.213-9.393-9.393-9.393-5.179 0-9.392 4.214-9.392 9.393v1.309c-.02.621.756 1.014 1.244.629v1.182c-.042 2.701 1.388 5.299 3.7 6.827l-.277 2.65a.427.427 0 01-.329.371l-.005.002h-.005l-6.994 1.722a.781.781 0 10.374 1.517l2.584-.636v8.16c-.14.152-.271.313-.393.485l-.004.006c-.282.407-.724.7-1.218.833v-2.575a.781.781 0 00-1.563 0v5.917H1.68l1.077-7.634a.781.781 0 00-1.547-.219L.008 38.788a.781.781 0 00.184.621zm32.393-9.864l1.208 8.57h-3.778v-5.916a.781.781 0 10-1.563 0v2.575a2.149 2.149 0 01-1.222-.84 4.905 4.905 0 00-.392-.484v-8.16l2.605.641a4.403 4.403 0 013.142 3.614zm-8.36 2.445a4.625 4.625 0 00-.828-.076v-7.47l1.878.461v7.41a4.592 4.592 0 00-1.05-.325zm-10.585-.076v-4.87c1.03 1.16 2.478 1.845 4.045 1.848 1.603.034 3.094-.646 4.15-1.808v4.83H13.64zm-1.841.008a4.624 4.624 0 00-1.6.393v-7.41l1.879-.462v7.471c-.094 0-.187.003-.28.008zm1.94-8.032a1.99 1.99 0 00.826-1.413l.213-2.034c.917.365 1.87.55 2.847.55a8.22 8.22 0 003.071-.555l.214 2.039c.061.586.377 1.1.841 1.424-.37 1.9-2.039 3.477-3.993 3.427-1.9.08-3.638-1.58-4.019-3.438zm3.998-22.003c3.969 0 7.258 2.969 7.763 6.803a.803.803 0 00-.396-.108h-1.62a2.005 2.005 0 01-2.003-2.003.781.781 0 10-1.563 0 2.008 2.008 0 01-2.002 2.002l-6.536.001a2.21 2.21 0 00-1.451.543c.303-4.042 3.689-7.238 7.808-7.238zm-6.587 10.97v-2.67a.635.635 0 01.23-.042h6.536a3.57 3.57 0 002.784-1.34 3.56 3.56 0 002.783 1.34h.841v2.687c.077 3.543-3.049 6.671-6.59 6.598a6.585 6.585 0 01-3.007-.728c-2.212-1.164-3.616-3.459-3.577-5.846zM7.02 36.37a3.726 3.726 0 002.5-1.537c.149-.21.32-.4.506-.565a3.083 3.083 0 012.037-.792H23.41a3.08 3.08 0 012.038.793c.187.166.357.354.505.564a3.718 3.718 0 002.5 1.536v1.746H7.022V36.37z"/><path d="M17.311 15.377h1.09a.781.781 0 100-1.563h-.549l.48-1.27a.781.781 0 10-1.463-.551l-.67 1.776a1.188 1.188 0 001.112 1.608zm15.473 2.376a.826.826 0 00-.072-.136c-.377-.574-1.287-.394-1.415.282-.14.673.631 1.188 1.2.802a.786.786 0 00.287-.948zm3.454 0a.822.822 0 00-.07-.136c-.606-.838-1.844-.012-1.3.868.534.771 1.715.14 1.37-.732zM3.716 26.664c-.284-.459-1.013-.458-1.299 0-.387.568.13 1.34.803 1.199.53-.09.81-.76.496-1.2z"/></g><defs><clipPath id="clip0_73_640"><path fill="#fff" d="M0 0h40v40H0z"/></clipPath></defs></svg>