<svg width="40" height="40" fill="none" xmlns="http://www.w3.org/2000/svg"><g clip-path="url(#clip0_73_601)" fill="#E31E24"><path d="M16.793 40c-1.2 0-2.379-.558-3.123-1.592a2.26 2.26 0 00-2.21-.916 3.85 3.85 0 01-4.352-2.908 2.26 2.26 0 00-1.693-1.692 3.848 3.848 0 01-2.907-4.351 2.26 2.26 0 00-.916-2.211 3.848 3.848 0 01-1.02-5.133 2.26 2.26 0 000-2.394 3.848 3.848 0 011.02-5.133 2.26 2.26 0 00.916-2.21 3.848 3.848 0 012.907-4.352 2.26 2.26 0 001.693-1.693 3.848 3.848 0 014.351-2.907 2.26 2.26 0 002.211-.916 3.848 3.848 0 015.133-1.02 2.26 2.26 0 002.393 0 3.848 3.848 0 015.133 1.02 2.26 2.26 0 002.212.916 3.848 3.848 0 014.351 2.907 2.26 2.26 0 001.692 1.693 3.848 3.848 0 012.908 4.351 2.26 2.26 0 00.916 2.211 3.848 3.848 0 011.02 5.133 2.26 2.26 0 000 2.393 3.848 3.848 0 01-1.02 5.133 2.26 2.26 0 00-.916 2.212 3.848 3.848 0 01-2.908 4.351 2.26 2.26 0 00-1.692 1.692 3.848 3.848 0 01-4.351 2.908 2.26 2.26 0 00-2.211.916 3.848 3.848 0 01-5.133 1.02 2.26 2.26 0 00-2.394 0 3.809 3.809 0 01-2.01.572zm-4.958-4.101a3.81 3.81 0 013.104 1.596 2.28 2.28 0 003.042.605 3.815 3.815 0 014.038 0 2.28 2.28 0 003.042-.605 3.814 3.814 0 013.731-1.545 2.28 2.28 0 002.579-1.724 3.814 3.814 0 012.856-2.855 2.28 2.28 0 001.723-2.579 3.814 3.814 0 011.545-3.731 2.28 2.28 0 00.605-3.042 3.814 3.814 0 010-4.038 2.28 2.28 0 00-.605-3.042 3.815 3.815 0 01-1.545-3.731 2.28 2.28 0 00-1.724-2.579 3.814 3.814 0 01-2.855-2.856 2.28 2.28 0 00-2.579-1.723 3.814 3.814 0 01-3.731-1.545 2.28 2.28 0 00-3.042-.605 3.814 3.814 0 01-4.038 0 2.28 2.28 0 00-3.042.605 3.815 3.815 0 01-3.731 1.545 2.28 2.28 0 00-2.579 1.723A3.814 3.814 0 015.773 8.63a2.28 2.28 0 00-1.723 2.579 3.814 3.814 0 01-1.545 3.731 2.28 2.28 0 00-.605 3.042 3.814 3.814 0 010 4.038 2.28 2.28 0 00.605 3.042 3.814 3.814 0 011.545 3.731 2.28 2.28 0 001.723 2.579 3.814 3.814 0 012.856 2.856 2.28 2.28 0 002.579 1.723c.21-.035.42-.051.627-.051z"/><path d="M20 34.846c-8.186 0-14.847-6.66-14.847-14.846 0-8.187 6.66-14.847 14.847-14.847 2.698 0 5.34.732 7.64 2.115a.781.781 0 01-.805 1.34A13.262 13.262 0 0020 6.715c-7.325 0-13.284 5.96-13.284 13.284 0 7.325 5.96 13.284 13.284 13.284 7.325 0 13.284-5.96 13.284-13.284 0-2.361-.627-4.68-1.814-6.705a.781.781 0 011.348-.79A14.837 14.837 0 0134.847 20c0 8.186-6.66 14.846-14.847 14.846z"/><path d="M17.061 26.831a.781.781 0 01-.702-1.123l5.876-12.099a.781.781 0 111.406.683l-5.876 12.1a.781.781 0 01-.704.44zm8.429.436a3.134 3.134 0 01-3.13-3.13 3.134 3.134 0 013.13-3.131 3.134 3.134 0 013.13 3.13 3.134 3.134 0 01-3.13 3.131zm0-4.698a1.57 1.57 0 00-1.568 1.567 1.57 1.57 0 001.568 1.568 1.57 1.57 0 001.568-1.568 1.57 1.57 0 00-1.568-1.567zm-10.98-3.574a3.134 3.134 0 01-3.131-3.13 3.134 3.134 0 013.13-3.132 3.134 3.134 0 013.131 3.131 3.134 3.134 0 01-3.13 3.13zm0-4.699a1.57 1.57 0 00-1.568 1.568 1.57 1.57 0 001.568 1.568 1.57 1.57 0 001.567-1.568 1.57 1.57 0 00-1.567-1.568zm15.492-3.403a.787.787 0 01-.553-.23.787.787 0 01-.229-.552.787.787 0 01.781-.781c.206 0 .408.084.553.229a.787.787 0 01.23.553.787.787 0 01-.23.552.787.787 0 01-.552.229z"/></g><defs><clipPath id="clip0_73_601"><path fill="#fff" d="M0 0h40v40H0z"/></clipPath></defs></svg>