<svg width="40" height="40" fill="none" xmlns="http://www.w3.org/2000/svg"><g clip-path="url(#clip0_5_6050)" fill="#E31E24"><path d="M35.69 35.076l-5.06-8.765a4.527 4.527 0 001.575-2.85 2.945 2.945 0 011.122-1.944 4.537 4.537 0 001.418-5.291 2.945 2.945 0 010-2.243 4.537 4.537 0 00-1.418-5.292 2.944 2.944 0 01-1.122-1.943 4.538 4.538 0 00-3.874-3.873 2.944 2.944 0 01-1.942-1.122A4.538 4.538 0 0021.097.335a2.944 2.944 0 01-2.243 0 4.537 4.537 0 00-5.292 1.418 2.945 2.945 0 01-1.943 1.122 4.537 4.537 0 00-3.873 3.873 2.945 2.945 0 01-1.122 1.943 4.537 4.537 0 00-1.418 5.292c.296.723.296 1.52 0 2.243a4.537 4.537 0 001.418 5.291 2.945 2.945 0 011.122 1.943 4.526 4.526 0 001.607 2.879L4.31 35.076a.781.781 0 00.879 1.145l4.397-1.178 1.173 4.378a.781.781 0 001.431.188l5.444-9.428a4.485 4.485 0 001.22-.308 2.944 2.944 0 012.244 0c.414.17.843.273 1.274.315l5.44 9.421a.781.781 0 001.431-.188l1.173-4.378 4.397 1.178a.781.781 0 00.879-1.145zm-23.91 2.118l-.888-3.31a.782.782 0 00-.957-.553l-3.33.892 4.106-7.11c.29.103.594.178.908.22a2.945 2.945 0 011.943 1.123 4.517 4.517 0 002.35 1.58l-4.133 7.158zm6.482-8.767a2.97 2.97 0 01-3.464-.928 4.498 4.498 0 00-2.968-1.714 2.97 2.97 0 01-2.536-2.535 4.499 4.499 0 00-1.713-2.968 2.97 2.97 0 01-.929-3.464 4.498 4.498 0 000-3.427 2.97 2.97 0 01.929-3.464 4.498 4.498 0 001.713-2.968 2.97 2.97 0 012.536-2.536 4.498 4.498 0 002.968-1.713 2.97 2.97 0 013.464-.929 4.499 4.499 0 003.427 0 2.97 2.97 0 013.464.929 4.498 4.498 0 002.968 1.713 2.97 2.97 0 012.535 2.536 4.498 4.498 0 001.714 2.968 2.97 2.97 0 01.928 3.464 4.498 4.498 0 000 3.427 2.97 2.97 0 01-.928 3.464 4.498 4.498 0 00-1.714 2.968 2.97 2.97 0 01-2.535 2.535 4.498 4.498 0 00-2.968 1.714 2.97 2.97 0 01-3.464.928 4.499 4.499 0 00-3.427 0zm11.803 4.904a.781.781 0 00-.957.553l-.887 3.31-4.14-7.17a4.516 4.516 0 002.308-1.568 2.944 2.944 0 011.942-1.122c.329-.045.646-.126.949-.237l4.114 7.126-3.33-.892z"/><path d="M16.425 12.214l-2.432 2.431a.782.782 0 000 1.105l4.56 4.56a.781.781 0 001.105 0l6.349-6.349a.781.781 0 000-1.105l-2.431-2.43a.781.781 0 00-1.105 0l-3.365 3.364-1.576-1.576a.782.782 0 00-1.105 0zm2.128 3.234a.781.781 0 001.105 0l3.365-3.365 1.326 1.326-5.244 5.243-3.454-3.454 1.326-1.326 1.576 1.576z"/><path d="M30.158 15.367a10.1 10.1 0 00-1.799-5.773 10.146 10.146 0 00-4.616-3.672.781.781 0 00-.576 1.452 8.553 8.553 0 015.428 7.993c0 4.74-3.856 8.595-8.595 8.595-4.74 0-8.595-3.855-8.595-8.595a8.553 8.553 0 015.428-7.993.781.781 0 10-.576-1.453 10.146 10.146 0 00-4.616 3.673 10.1 10.1 0 00-1.799 5.773c0 5.601 4.557 10.158 10.158 10.158 5.601 0 10.158-4.557 10.158-10.158z"/><path d="M20 6.772a.783.783 0 00.781-.782.787.787 0 00-.229-.552.787.787 0 00-.552-.229.788.788 0 00-.553.229.787.787 0 00-.229.552.784.784 0 00.781.781z"/></g><defs><clipPath id="clip0_5_6050"><path fill="#fff" d="M0 0h40v40H0z"/></clipPath></defs></svg>