<svg width="25" height="24" fill="none" xmlns="http://www.w3.org/2000/svg"><path d="M8.878 3h-3.8c-.56 0-.84 0-1.054.109a1 1 0 00-.437.437c-.11.214-.11.494-.11 1.054v3.8c0 .56 0 .84.11 1.054a1 1 0 00.437.437c.213.109.493.109 1.054.109h3.8c.56 0 .84 0 1.054-.109a1 1 0 00.436-.437c.11-.214.11-.494.11-1.054V4.6c0-.56 0-.84-.11-1.054a1 1 0 00-.436-.437C9.718 3 9.438 3 8.878 3zm11 0h-3.8c-.56 0-.84 0-1.054.109a1 1 0 00-.438.437c-.109.214-.109.494-.109 1.054v3.8c0 .56 0 .84.11 1.054a1 1 0 00.437.437c.214.109.494.109 1.054.109h3.8c.56 0 .84 0 1.053-.109a1 1 0 00.438-.437c.108-.214.108-.494.108-1.054V4.6c0-.56 0-.84-.108-1.054a1 1 0 00-.438-.437C20.718 3 20.439 3 19.878 3zm0 11h-3.8c-.56 0-.84 0-1.054.109a1 1 0 00-.438.437c-.109.214-.109.494-.109 1.054v3.8c0 .56 0 .84.11 1.054a1 1 0 00.437.437c.214.109.494.109 1.054.109h3.8c.56 0 .84 0 1.053-.109a1 1 0 00.438-.437c.108-.214.108-.494.108-1.054v-3.8c0-.56 0-.84-.108-1.054a1 1 0 00-.438-.437C20.718 14 20.439 14 19.878 14zm-11 0h-3.8c-.56 0-.84 0-1.054.109a1 1 0 00-.437.437c-.11.214-.11.494-.11 1.054v3.8c0 .56 0 .84.11 1.054a1 1 0 00.437.437c.213.109.493.109 1.054.109h3.8c.56 0 .84 0 1.054-.109a1 1 0 00.436-.437c.11-.214.11-.494.11-1.054v-3.8c0-.56 0-.84-.11-1.054a1 1 0 00-.436-.437C9.718 14 9.438 14 8.878 14z" fill="#28C660"/></svg>