<svg width="35" height="34" fill="none" xmlns="http://www.w3.org/2000/svg"><path d="M10.428.167h14.14c5.386 0 9.763 4.376 9.763 9.763v14.14a9.763 9.763 0 01-9.764 9.763h-14.14c-5.386 0-9.763-4.376-9.763-9.763V9.93A9.763 9.763 0 0110.428.167zm-.337 3.366a6.06 6.06 0 00-6.06 6.06v14.814c0 3.35 2.71 6.06 6.06 6.06h14.813a6.06 6.06 0 006.06-6.06V9.593c0-3.35-2.71-6.06-6.06-6.06H10.091zm16.244 2.525a2.104 2.104 0 110 4.209 2.104 2.104 0 010-4.209zm-8.838 2.525a8.417 8.417 0 110 16.834 8.417 8.417 0 010-16.834zm0 3.367a5.05 5.05 0 100 10.1 5.05 5.05 0 000-10.1z" fill="#545454"/></svg>