<svg width="105" height="105" fill="none" xmlns="http://www.w3.org/2000/svg"><circle cx="52.5" cy="52.5" r="52.5" fill="#fff"/><g clip-path="url(#clip0_142_340)"><path d="M63.134 46.265L58.687 62.11 42.74 58.04l2.224-7.922 7.972 2.035 2.224-7.922 7.973 2.035z" fill="red"/><path d="M42.743 58.03l-.002.009h-.003l.004-.01.001.002z" fill="red"/><path d="M40.517 65.952l2.221-7.914h.003l.003-.008 7.97 2.035-2.226 7.931-7.97-2.044zM60.906 54.18l2.22-7.913h.003l.003-.008 7.97 2.034-2.226 7.932-7.97-2.045z" fill="#000"/><path d="M52.389 42.08l-.969.559-3.275-5.674-1.11-1.263.168 1.782-.303.176-5.738-6.342-.267-.025-.113.245 2.623 8.139-.303.175-1.46-1.037.54 1.593 3.276 5.673-.969.56-1.11-.695 1.907 3.302 7.03 1.827 1.932-7.002-1.905-3.301.045 1.308zm-4.529 1.28c-.975.563-2.212.247-2.761-.705-.55-.952-.205-2.18.77-2.743.975-.563 2.212-.248 2.761.704.55.952.205 2.181-.77 2.744zm-7.398-12.814l.432.748-.112.243-.32-.991z" fill="red"/><path d="M41.16 31.318l-.265-.024-.432-.748.698.772z" fill="red"/><path d="M41.324 30.356l1.23 1.092-1.393-.13-.267-.025-.112.244-.583 1.272-.33-1.613-1.662-.156 1.456-.84-.33-1.612 1.23 1.092 1.456-.84-.695 1.516z" fill="red"/><path fill-rule="evenodd" clip-rule="evenodd" d="M46.088 40.29c-.764.44-1.034 1.403-.603 2.149.43.746 1.4.993 2.163.552.764-.441 1.034-1.404.604-2.15-.431-.746-1.4-.993-2.164-.552zm-.775 2.248c-.484-.839-.18-1.921.678-2.417.86-.496 1.948-.218 2.433.621.484.839.18 1.921-.679 2.417-.859.496-1.948.218-2.432-.621z" fill="#000"/><path fill-rule="evenodd" clip-rule="evenodd" d="M46.193 40.67l.172-.1.571.989 1.004-.58.096.169-1.175.678-.668-1.157z" fill="#000"/><path d="M33.426 88.774l-1.48.855-3.224-5.586-1.182.683 3.225 5.585-1.479.853-3.93-6.807 4.14-2.39 3.93 6.807zm3.982-5.234c.47.815.66 1.472.57 1.973-.095.555-.55 1.066-1.364 1.536-.813.47-1.48.6-2.017.402-.472-.176-.942-.668-1.409-1.476L31.8 83.571c-.466-.808-.66-1.464-.58-1.967.103-.558.556-1.07 1.364-1.536.807-.466 1.485-.608 2.012-.412.478.171.953.664 1.423 1.48l1.388 2.404zm-1.328 1.232l-1.796-3.112c-.135-.233-.261-.375-.38-.428-.15-.06-.343-.022-.581.116-.225.13-.355.264-.389.405-.033.141.014.32.14.54l1.859 3.22c.127.219.26.35.397.39.139.042.32-.003.546-.133.252-.146.385-.296.401-.452.008-.125-.058-.307-.196-.546zm3.198-6.798l-1.052.608 3.213 5.566-1.499.865-3.213-5.566-1.043.602-.717-1.241 3.594-2.075.717 1.241zm6.39.797c.47.815.66 1.472.57 1.973-.095.555-.55 1.066-1.363 1.536-.814.47-1.48.6-2.018.402-.472-.176-.942-.668-1.408-1.476l-1.389-2.404c-.466-.808-.659-1.464-.579-1.967.102-.558.556-1.07 1.363-1.536.807-.467 1.485-.608 2.012-.413.479.172.953.666 1.423 1.48l1.388 2.405h.001zm-1.327 1.232l-1.797-3.112c-.134-.233-.261-.375-.38-.428-.15-.06-.343-.022-.58.116-.226.13-.355.265-.39.405-.033.141.014.32.14.54l1.86 3.22c.126.219.259.35.397.39.138.042.32-.003.545-.133.252-.146.386-.296.402-.452.007-.125-.058-.307-.197-.546zm7.573-1.903l-1.48.854-3.224-5.585a3.562 3.562 0 00-.2.943c-.046.656.22 1.576.797 2.76.19.39.667 1.248 1.432 2.573l-1.495.863-.65-1.125c-.608-1.054-1.042-1.928-1.302-2.623-.41-1.091-.541-2.045-.395-2.862a4.66 4.66 0 01.53-1.418l2.056-1.187 3.93 6.807zm1.463-9.662c.597 1.034.73 2.173.397 3.417.774.209 1.453.622 2.04 1.24.413.425.873 1.077 1.38 1.957l-1.48.854c-.417-.724-.758-1.252-1.02-1.583-.44-.548-.92-.943-1.439-1.186-.143.272-.273.49-.39.652l1.628 2.822-1.46.843-3.93-6.807 1.46-.843 1.669 2.89c.46-1.084.31-2.283-.447-3.595l1.48-.854.112.194v-.001zm9.041 3.598l-1.48.854-1.321-2.288a10.26 10.26 0 01-.034 3.071l-1.395.805-3.93-6.807 1.479-.854 2.872 4.975c.148-1 .054-2.002-.282-3.005-.23-.677-.67-1.578-1.319-2.703l1.48-.855 3.93 6.807z" fill="#000"/><path d="M66.398 66.802c.47.815.66 1.472.57 1.973-.094.555-.549 1.066-1.363 1.536s-1.48.6-2.018.402c-.472-.176-.941-.668-1.408-1.476l-1.388-2.404c-.47-.815-.662-1.468-.574-1.957.095-.555.549-1.067 1.363-1.537.94-.542 1.693-.645 2.258-.308.39.232.874.849 1.452 1.85l-1.528.883-.487-.843c-.135-.233-.262-.375-.38-.428-.146-.053-.337-.012-.575.126-.225.13-.356.263-.392.4-.036.137.01.315.137.535l1.859 3.22c.127.219.26.35.397.39.139.042.32-.003.546-.133.252-.146.385-.296.401-.452.008-.125-.058-.307-.196-.546l-.672-1.164 1.53-.883.47.815-.002.001zm1.901-5.582l-1.053.607 3.214 5.566-1.5.865-3.213-5.566-1.042.602-.717-1.241 3.594-2.075.717 1.241zm6.39.796c.47.815.66 1.472.57 1.973-.095.555-.55 1.066-1.364 1.536-.814.47-1.48.6-2.018.402-.471-.176-.941-.668-1.408-1.476l-1.388-2.404c-.466-.808-.66-1.464-.58-1.967.102-.558.556-1.07 1.364-1.536.807-.466 1.485-.608 2.012-.412.478.171.953.665 1.423 1.48l1.388 2.404zm-1.328 1.232l-1.797-3.112c-.134-.233-.26-.375-.379-.428-.15-.06-.343-.022-.581.116-.225.13-.355.265-.389.405-.034.141.013.32.14.54l1.859 3.22c.126.219.26.35.397.39.138.042.32-.003.546-.133.251-.145.385-.295.401-.452.008-.125-.058-.307-.196-.546zm7.573-1.902l-1.479.854-3.224-5.586a3.558 3.558 0 00-.2.943c-.046.656.218 1.576.796 2.76.19.39.667 1.248 1.432 2.573l-1.495.863-.65-1.125c-.608-1.054-1.041-1.928-1.302-2.623-.41-1.091-.541-2.045-.395-2.861.088-.473.266-.947.531-1.42l2.056-1.186 3.93 6.807zm5.352-3.09l-1.48.854-1.32-2.288c.142 1.03.13 2.053-.035 3.07l-1.395.805-3.93-6.806 1.48-.854 2.871 4.974a6.37 6.37 0 00-.282-3.005c-.23-.677-.669-1.578-1.318-2.703l1.479-.854 3.93 6.807zm6.598-2.259l-1.31.756-.672-1.163-3.456 1.995-3.93-6.807 1.48-.854 3.201 5.546 1.182-.682-3.202-5.546 1.479-.854 3.202 5.546.626-.361 1.4 2.424zm3.886-3.794l-1.48.854-.756-1.309-1.211.7.756 1.308-1.48.855-.756-1.31c-1.442-2.497-2.033-4.6-1.774-6.306l1.36-.785c1.645.677 3.173 2.239 4.585 4.684l.755 1.309zm-2.891-1.59a10.798 10.798 0 00-2.52-2.967 10.792 10.792 0 001.309 3.666l1.21-.699z" fill="red"/><path d="M50.721 85.473l-.668.386-.813-1.406-.534.308.813 1.407-.67.386-1.775-3.076.669-.386.645 1.117.534-.308-.645-1.117.668-.387 1.776 3.076zm2.315-1.336l-.668.386-.342-.591-.547.316.341.591-.669.386-.34-.591c-.653-1.129-.92-2.079-.802-2.85l.614-.355c.743.306 1.434 1.012 2.072 2.117l.341.591zm-1.306-.718a4.87 4.87 0 00-1.138-1.34 4.88 4.88 0 00.592 1.656l.547-.316zm1.613-2.813l-.475.275 1.452 2.515-.678.391-1.452-2.515-.471.272-.324-.56 1.624-.938.324.56zm3.538 1.311l-.668.386-.812-1.407a2 2 0 01-.261.18c.006.312.045.588.118.826.065.223.177.475.34.756l-.67.386c-.293-.508-.44-1.091-.441-1.749-.354-.026-.616-.186-.786-.481-.336-.581-.17-1.065.497-1.45l.907-.523 1.775 3.076h.001zm-1.77-1.572l-.338-.587-.235.136c-.239.137-.3.305-.186.504.068.117.14.187.22.209.08.022.179-.002.3-.071a1.05 1.05 0 00.239-.191zm3.577-3.455c.27.467.33.982.179 1.544.35.094.657.28.922.56.186.192.394.487.623.885l-.669.386a6.406 6.406 0 00-.46-.716 1.855 1.855 0 00-.65-.536 2.581 2.581 0 01-.177.295l.736 1.275-.646.373-.736-1.275c-.09.01-.205.012-.344.005-.022.259.024.535.14.831.07.178.2.43.389.757l-.669.386-.119-.206c-.388-.672-.508-1.29-.359-1.855-.562-.15-.977-.46-1.247-.927l-.05-.087.668-.387c.342.593.778.923 1.306.987l-.754-1.305.646-.373.754 1.305c.208-.49.14-1.031-.202-1.624l.669-.386.05.087zm4.032 1.657l-.67.386-.812-1.407-.533.308.812 1.407-.67.386-1.775-3.076.669-.386.645 1.117.534-.308-.645-1.117.669-.386 1.775 3.076zm1.839-2.377c.212.367.302.653.267.856-.041.226-.245.445-.613.657l-.97.56-1.775-3.076.66-.381.637 1.104a2.23 2.23 0 01.313-.215c.329-.19.617-.236.866-.138.218.088.423.299.616.632h-.001zm-.669.386c-.086-.15-.161-.246-.227-.29-.102-.07-.218-.067-.35.01a1.597 1.597 0 00-.232.162l.488.846.149-.086c.15-.087.238-.178.263-.275.025-.096-.005-.219-.091-.368zm2.234.025l-.669.386-1.776-3.076.67-.386 1.775 3.076zm2.02-1.166l-1.494.862-1.776-3.076 1.454-.84.334.58-.794.457.31.54.836-.483.318.552-.834.482.478.829.835-.482.333.578zm3.284-1.896l-.669.386-1.457-2.524-.534.308 1.457 2.524-.669.386-1.775-3.076 1.87-1.08 1.776 3.076zm1.799-2.366c.212.368.298.666.257.892-.042.25-.248.482-.616.694-.367.212-.669.272-.912.181-.213-.079-.425-.301-.636-.666l-.627-1.087c-.21-.365-.298-.66-.262-.888.046-.253.251-.484.616-.694.365-.21.671-.274.91-.187.216.078.43.3.642.669l.628 1.086zm-.6.557l-.812-1.407c-.061-.105-.118-.17-.171-.193-.068-.027-.156-.009-.263.053-.102.059-.16.12-.175.183-.016.063.006.144.063.243l.84 1.455c.057.1.117.158.18.177.061.018.144-.002.245-.06.114-.067.174-.134.181-.204.004-.057-.026-.14-.088-.247zm1.445-3.072l-.476.275 1.452 2.515-.677.391-1.452-2.515-.472.272-.323-.56 1.624-.938.323.56h.001zm2.888.36c.212.368.299.665.258.892-.043.25-.249.481-.617.694-.367.212-.669.272-.912.181-.213-.08-.425-.301-.636-.666l-.627-1.087c-.21-.365-.298-.66-.262-.888.046-.253.251-.484.616-.694.365-.211.671-.275.91-.187.216.078.43.3.642.668l.628 1.087zm-.6.557l-.812-1.407c-.061-.105-.118-.17-.171-.193-.068-.027-.156-.01-.263.053-.102.059-.16.12-.175.182-.015.064.006.145.063.244l.84 1.455c.057.1.117.158.18.176.061.019.144-.002.245-.06.114-.066.174-.134.182-.204.003-.056-.027-.139-.09-.246zm3.422-.859l-.669.386-1.457-2.524c-.05.142-.08.284-.09.426-.022.297.098.713.36 1.248.085.176.301.563.647 1.163l-.675.39-.294-.509a8.405 8.405 0 01-.589-1.185c-.185-.493-.244-.924-.179-1.293.04-.215.12-.427.24-.641l.929-.536 1.776 3.075h.001zm.661-4.367c.27.467.33.982.18 1.544.349.094.656.28.921.56.187.193.395.488.624.885l-.669.386a6.42 6.42 0 00-.46-.716 1.856 1.856 0 00-.65-.536 2.583 2.583 0 01-.177.295l.736 1.275-.66.38-1.775-3.075.66-.38.753 1.305c.207-.49.14-1.032-.202-1.624l.669-.386.05.087zm4.085 1.626l-.668.386-.597-1.034c.064.465.059.928-.015 1.388l-.631.364-1.776-3.076.669-.386 1.298 2.248a2.883 2.883 0 00-.128-1.358c-.104-.305-.303-.713-.596-1.222l.669-.386 1.775 3.076z" fill="#000"/></g><defs><clipPath id="clip0_142_340"><path fill="#fff" transform="rotate(-30 93.006 15.518)" d="M0 0h77.923v55.004H0z"/></clipPath></defs></svg>