<svg width="111" height="80" fill="none" xmlns="http://www.w3.org/2000/svg"><g clip-path="url(#clip0_5_6350)"><path d="M73.735 39.574L56.963 56.298 40.191 39.574l8.387-8.361 8.385 8.36 8.386-8.36 8.386 8.36z" fill="red"/><path d="M40.203 39.566l-.011.01-.003-.003.013-.01.001.003z" fill="red"/><path d="M31.813 47.924l8.376-8.352.002.002.01-.009 8.384 8.359-8.396 8.372-8.376-8.372zm33.537 0l8.375-8.352.002.002.01-.009 8.384 8.359-8.396 8.372-8.376-8.372z" fill="#000"/><path d="M63.46 26.489h-1.592V16.96l-.47-2.398-1.061 2.368h-.5L57.276 4.77l-.313-.226-.312.226-2.562 12.16h-.498l-1.062-2.368-.47 2.398v9.529h-1.592l-.874-1.68v5.543l7.37 7.415 7.372-7.415v-5.544l-.875 1.68zm-6.498-1.68a2.9 2.9 0 01-2.904-2.897 2.9 2.9 0 012.904-2.895 2.9 2.9 0 012.904 2.895 2.9 2.9 0 01-2.904 2.896zm.001-21.521v1.256l-.312.225.312-1.48z" fill="red"/><path d="M57.274 4.769l-.31-.225V3.288l.31 1.48z" fill="red"/><path d="M58.16 3.675l.741 2.271-1.627-1.177-.31-.225-.313.225-1.626 1.177.742-2.27-1.938-1.405h2.394L56.963 0l.74 2.27h2.395L58.16 3.676z" fill="red"/><path fill-rule="evenodd" clip-rule="evenodd" d="M56.963 19.651a2.272 2.272 0 00-2.275 2.27 2.272 2.272 0 002.275 2.268 2.272 2.272 0 002.276-2.269 2.272 2.272 0 00-2.276-2.269zm-2.558 2.27a2.555 2.555 0 012.558-2.552 2.555 2.555 0 012.559 2.551 2.555 2.555 0 01-2.559 2.551 2.555 2.555 0 01-2.558-2.55z" fill="#000"/><path fill-rule="evenodd" clip-rule="evenodd" d="M56.822 20.207h.283v1.66h1.65v.283h-1.933v-1.943z" fill="#000"/><path d="M6.81 71.514H4.374v-9.38H2.432v9.38H0V60.082h6.81v11.432zm8.639-3.697c0 1.368-.234 2.334-.702 2.898-.512.63-1.437.944-2.776.944-1.338 0-2.254-.32-2.775-.96-.457-.565-.686-1.526-.686-2.883v-4.039c0-1.357.229-2.323.686-2.898.523-.63 1.447-.944 2.775-.944 1.328 0 2.265.315 2.776.944.468.564.702 1.53.702 2.898v4.04zm-2.515.586v-5.227c0-.39-.055-.662-.163-.814-.142-.185-.408-.278-.8-.278-.37 0-.626.076-.768.229-.142.152-.212.413-.212.781v5.407c0 .369.071.63.212.781.141.153.397.229.768.229.414 0 .686-.092.817-.277.098-.152.147-.43.147-.831zm8.786-6.237h-1.73v9.348h-2.466v-9.348h-1.715v-2.085h5.912v2.085zm7.316 5.651c0 1.368-.234 2.334-.702 2.898-.512.63-1.437.944-2.776.944-1.339 0-2.254-.32-2.776-.96-.456-.565-.685-1.526-.685-2.883v-4.039c0-1.357.229-2.323.685-2.898.524-.63 1.448-.944 2.776-.944 1.328 0 2.265.315 2.776.944.468.564.702 1.53.702 2.898v4.04zm-2.515.586v-5.227c0-.39-.055-.662-.163-.814-.142-.185-.408-.278-.8-.278-.37 0-.626.076-.768.229-.142.152-.212.413-.212.781v5.407c0 .369.071.63.212.781.141.153.397.229.768.229.414 0 .686-.092.817-.277.098-.152.147-.43.147-.831h-.001zm10.697 3.111h-2.432v-9.38a5.143 5.143 0 00-.918 1.042c-.524.793-.852 2.144-.983 4.055-.044.63-.067 2.058-.067 4.283H30.36v-1.89c0-1.77.087-3.185.26-4.25.273-1.672.79-2.97 1.552-3.892.446-.531 1.002-1 1.666-1.4h3.38v11.432zm8.688-11.107c0 1.737-.648 3.267-1.944 4.593.806.825 1.35 1.84 1.633 3.045.207.837.31 1.992.31 3.469H43.47c0-1.216-.044-2.128-.131-2.736-.154-1.01-.464-1.857-.932-2.541-.37.24-.685.418-.946.537v4.74H39.06V60.082h2.4v4.853c1.34-1.031 2.01-2.65 2.01-4.853h2.434v.326-.001zm8.59 11.107h-2.434V67.67a14.996 14.996 0 01-2.23 3.843H47.54V60.082h2.432v8.354c.896-1.151 1.494-2.481 1.792-3.99.199-1.02.3-2.474.3-4.364h2.433v11.432z" fill="#000"/><path d="M63.134 67.816c0 1.368-.233 2.335-.701 2.899-.513.63-1.437.944-2.776.944-1.339 0-2.254-.32-2.776-.961-.457-.564-.686-1.526-.686-2.883v-4.038c0-1.368.23-2.33.686-2.883.512-.629 1.437-.944 2.776-.944 1.546 0 2.548.418 3.005 1.255.316.575.474 1.704.474 3.387H60.62v-1.417c0-.391-.055-.662-.163-.815-.142-.173-.408-.26-.8-.26-.37 0-.626.073-.768.22-.142.146-.212.404-.212.773v5.406c0 .37.071.63.212.782.14.153.397.228.768.228.414 0 .686-.091.817-.277.098-.151.147-.429.147-.83v-1.955h2.515v1.368l-.003.001zm6.321-5.65h-1.73v9.348h-2.466v-9.348h-1.715v-2.085h5.911v2.085zm7.315 5.651c0 1.368-.233 2.334-.701 2.898-.513.63-1.437.944-2.776.944-1.339 0-2.254-.32-2.776-.96-.457-.565-.686-1.526-.686-2.883v-4.039c0-1.357.23-2.323.686-2.898.523-.63 1.448-.944 2.776-.944 1.328 0 2.265.315 2.775.944.469.564.702 1.53.702 2.898v4.04zm-2.514.586v-5.227c0-.39-.055-.662-.163-.814-.142-.185-.408-.278-.8-.278-.37 0-.626.076-.768.229-.142.152-.212.413-.212.781v5.407c0 .369.07.63.212.781.14.153.397.229.768.229.414 0 .686-.092.817-.277.098-.152.147-.43.147-.831h-.001zm10.697 3.111H82.52v-9.38a5.143 5.143 0 00-.917 1.042c-.524.793-.853 2.144-.984 4.055-.044.63-.066 2.058-.066 4.283h-2.458v-1.89c0-1.77.087-3.185.26-4.25.272-1.672.79-2.97 1.551-3.892.446-.531 1.002-1 1.666-1.4h3.381v11.432zm8.802 0h-2.432V67.67a14.993 14.993 0 01-2.23 3.843H86.8V60.082h2.433v8.354c.895-1.151 1.493-2.481 1.792-3.99.198-1.02.299-2.474.299-4.364h2.432v11.432zm9.75 1.953h-2.156v-1.954h-5.684V60.08h2.433v9.315h1.944V60.08h2.432v9.315h1.029v4.071h.002zM111 71.514h-2.434v-2.199h-1.992v2.199h-2.434v-2.199c0-4.194.768-7.273 2.303-9.233h2.238c1.546 2.048 2.319 5.127 2.319 9.233v2.199zm-2.434-4.104c0-1.91-.332-3.767-.996-5.57a15.989 15.989 0 00-.996 5.57h1.992z" fill="red"/><path d="M30.496 79.934h-1.1v-2.362h-.878v2.362h-1.1V74.77h1.1v1.876h.878V74.77h1.1v5.165zm3.808 0h-1.1v-.993h-.9v.993h-1.1v-.993c0-1.896.347-3.287 1.041-4.172h1.01c.699.925 1.05 2.317 1.05 4.172v.993zm-1.1-1.854c0-.864-.15-1.703-.45-2.516a7.225 7.225 0 00-.449 2.516h.9zm3.994-2.37h-.783v4.224H35.3V75.71h-.775v-.941h2.671v.941h.002zm3.431 4.223h-1.1v-2.362c-.15.025-.3.037-.45.037a4.467 4.467 0 00-.442 1.126c-.08.329-.12.728-.12 1.2h-1.1c0-.854.234-1.696.7-2.525-.417-.29-.627-.682-.627-1.178 0-.976.55-1.464 1.647-1.464h1.49v5.165l.002.001zm-1.064-3.267v-.986h-.387c-.392 0-.588.168-.588.501 0 .197.04.337.123.423.082.085.222.128.42.128.143 0 .288-.022.431-.066h.001zm6.872-1.751c0 .785-.292 1.477-.878 2.075.364.373.61.832.738 1.377.093.377.14.9.14 1.567h-1.1c0-.55-.02-.961-.06-1.236-.068-.457-.21-.84-.42-1.148-.168.107-.31.19-.427.243v2.141h-1.064v-2.141a3.383 3.383 0 01-.427-.243c-.212.309-.352.691-.42 1.148-.04.275-.059.687-.059 1.236h-1.1v-.346c0-1.128.293-1.994.878-2.598-.585-.598-.878-1.29-.878-2.075v-.146h1.1c0 .995.303 1.727.908 2.192V74.77h1.063v2.192c.605-.466.908-1.197.908-2.192h1.1v.146h-.002zm3.794 5.019h-1.1v-2.362h-.878v2.362h-1.1V74.77h1.1v1.876h.878V74.77h1.1v5.165zm3.963-1.657c0 .618-.094 1.043-.28 1.273-.213.255-.62.382-1.226.382h-1.594v-5.165h1.086v1.854c.168-.03.346-.044.539-.044.541 0 .93.153 1.166.457.207.27.31.684.31 1.243h-.001zm-1.1 0c0-.25-.025-.426-.075-.53-.075-.162-.22-.243-.439-.243-.133 0-.268.012-.401.037v1.42h.244c.248 0 .422-.051.521-.155.1-.103.15-.28.15-.53v.001zm2.737 1.656h-1.1v-5.165h1.1v5.165zm3.322.001h-2.457V74.77h2.391v.97h-1.306v.906h1.374v.927h-1.373v1.391h1.373v.971h-.002zm5.402 0h-1.1v-4.238h-.878v4.238h-1.1V74.77h3.077v5.165h.001zm3.905-1.671c0 .618-.106 1.055-.318 1.31-.232.285-.65.427-1.254.427-.606 0-1.02-.144-1.255-.435-.207-.255-.31-.69-.31-1.302v-1.825c0-.613.103-1.05.31-1.31.237-.284.654-.426 1.255-.426.6 0 1.022.143 1.254.426.212.256.317.692.317 1.31v1.825zm-1.137.265v-2.363c0-.177-.025-.299-.074-.367-.064-.083-.185-.125-.361-.125-.168 0-.283.034-.347.103-.064.068-.096.187-.096.353v2.443c0 .167.032.284.096.353.064.068.18.102.347.102.187 0 .31-.041.368-.124.044-.069.067-.194.067-.375zm3.971-2.818h-.783v4.224h-1.115V75.71h-.775v-.941h2.671v.941h.002zm3.306 2.553c0 .618-.105 1.055-.317 1.31-.232.285-.65.427-1.255.427-.605 0-1.019-.144-1.254-.435-.207-.255-.31-.69-.31-1.302v-1.825c0-.613.103-1.05.31-1.31.236-.284.654-.426 1.254-.426s1.023.143 1.255.426c.212.256.317.692.317 1.31v1.825zm-1.137.265v-2.363c0-.177-.024-.299-.073-.367-.064-.083-.185-.125-.362-.125-.168 0-.283.034-.346.103-.064.068-.096.187-.096.353v2.443c0 .167.032.284.096.353.063.068.18.102.346.102.188 0 .31-.041.369-.124.044-.069.066-.194.066-.375zm4.834 1.406h-1.1v-4.238a2.364 2.364 0 00-.416.471c-.237.358-.386.969-.444 1.832-.02.285-.03.93-.03 1.936h-1.11v-.853c0-.8.038-1.44.117-1.922.122-.756.356-1.341.7-1.759a3 3 0 01.753-.632h1.527v5.165h.003zm3.926-5.019c0 .785-.293 1.477-.879 2.075.364.373.61.832.738 1.377.093.377.14.9.14 1.567h-1.1c0-.55-.02-.961-.06-1.236-.068-.457-.209-.84-.42-1.148-.167.107-.31.19-.427.243v2.141H79.13V74.77h1.085v2.192c.605-.466.908-1.197.908-2.192h1.1v.146zm3.881 5.019h-1.1v-1.737a6.824 6.824 0 01-1.007 1.737H82.96V74.77h1.1v3.775c.404-.52.675-1.121.81-1.803.09-.46.134-1.119.134-1.972h1.1v5.165z" fill="#000"/></g><defs><clipPath id="clip0_5_6350"><path fill="#fff" d="M0 0h111v80H0z"/></clipPath></defs></svg>