<svg width="56" height="79" fill="none" xmlns="http://www.w3.org/2000/svg"><path d="M28 37.525c-2.652 0-5.196-1.04-7.071-2.892A9.813 9.813 0 0118 27.65a9.813 9.813 0 012.929-6.983A10.065 10.065 0 0128 17.775c2.652 0 5.196 1.04 7.071 2.892A9.813 9.813 0 0138 27.65a9.78 9.78 0 01-.761 3.779 9.868 9.868 0 01-2.168 3.204 10.01 10.01 0 01-3.244 2.14 10.109 10.109 0 01-3.827.752zM28 0C20.574 0 13.452 2.913 8.201 8.098 2.95 13.284 0 20.317 0 27.65 0 48.388 28 79 28 79s28-30.612 28-51.35c0-7.333-2.95-14.366-8.201-19.551C42.548 2.913 35.426 0 28 0z" fill="#E31E24"/></svg>