<svg width="24" height="24" fill="none" xmlns="http://www.w3.org/2000/svg"><path d="M9.595 13.429a1.844 1.844 0 00-1.233-.338 6.968 6.968 0 00-1.238.093v4.27h.905v-1.549c.104.008.208.008.311 0a1.8 1.8 0 001.315-.452c.253-.28.387-.648.37-1.026a1.304 1.304 0 00-.43-.998zm-1.113 1.756a.694.694 0 01-.147-.01l.027-.006a1.311 1.311 0 01-.306 0v-1.298a1.45 1.45 0 01.377-.038c.458 0 .714.24.714.632a.693.693 0 01-.665.72z" fill="#E31E24"/><path d="M16.364 0h-12a2.182 2.182 0 00-2.182 2.182v19.636c0 1.205.977 2.182 2.182 2.182h15.272a2.182 2.182 0 002.182-2.182V6l-5.454-6zm4.363 21.818a1.09 1.09 0 01-1.09 1.091H4.363a1.09 1.09 0 01-1.091-1.09V2.181a1.09 1.09 0 011.09-1.091h9.819v5.454a1.09 1.09 0 001.09 1.091h5.455v14.182zM15.273 6.545V1.091h.545l4.91 5.454h-5.455z" fill="#E31E24"/><path d="M13.287 13.587a2.476 2.476 0 00-1.652-.496 7.605 7.605 0 00-1.239.093v4.27c.344.047.69.069 1.037.066.667.05 1.33-.144 1.865-.545.466-.46.711-1.098.671-1.751a1.97 1.97 0 00-.682-1.637zm-.283 1.637c-.006 1.03-.546 1.516-1.37 1.51v-.005c-.104.01-.21.01-.316 0v-2.842c.136-.028.276-.041.415-.038a1.2 1.2 0 011.27 1.375zm1.756 2.23h.916v-1.74h1.451v-.796h-1.45v-.987h1.554v-.802H14.76v4.325z" fill="#E31E24"/></svg>