<svg width="37" height="36" fill="none" xmlns="http://www.w3.org/2000/svg"><circle cx="18.219" cy="18" r="18" fill="#545454"/><path d="M23.627 11.624c-1.15-1.15-2.8-1.724-4.596-1.724-2.729 0-4.38 1.15-5.314 2.083-1.149 1.149-1.795 2.657-1.795 4.236 0 1.94.79 3.375 2.154 3.95.072.072.216.072.287.072.288 0 .503-.216.575-.503.072-.144.143-.575.215-.79.072-.359 0-.503-.215-.79-.36-.43-.575-1.005-.575-1.723 0-2.083 1.58-4.309 4.453-4.309 2.297 0 3.733 1.293 3.733 3.375 0 1.293-.287 2.514-.79 3.447-.358.646-1.005 1.364-1.938 1.364-.431 0-.79-.143-1.006-.502-.215-.287-.287-.646-.215-1.005.072-.431.215-.862.36-1.293.214-.79.502-1.58.502-2.154 0-1.006-.646-1.724-1.58-1.724-1.22 0-2.154 1.221-2.154 2.729 0 .79.215 1.293.287 1.508-.144.646-1.077 4.452-1.22 5.098-.073.431-.719 3.734.286 3.95 1.078.287 2.083-2.944 2.155-3.303.072-.288.359-1.436.502-2.083.503.503 1.365.862 2.226.862 1.58 0 2.945-.718 3.95-2.01.933-1.222 1.508-2.945 1.508-4.884-.072-1.292-.646-2.8-1.795-3.877z" fill="#fff"/></svg>