<svg width="1920" height="1262" fill="none" xmlns="http://www.w3.org/2000/svg"><path fill="#222" d="M0 0h1920v1262H0z"/><g opacity=".1" filter="url(#filter0_f_205_27252)" clip-path="url(#clip0_205_27252)"><path fill-rule="evenodd" clip-rule="evenodd" d="M354.181-154.838c8.422-41.178 75.894-32.545 112.996-52.293 29.732-15.826 58.099-32.111 84.611-52.886 44.298-34.711 72.007-131.347 124.452-110.934 58.142 22.631 6.44 132.361 48.647 178.31 32.05 34.892 98.513-1.017 138.107 25.002 42.623 28.009 74.389 73.91 87.443 123.214C964.181 7.48 982.856 85.224 937.6 114.12c-61.471 39.251-145.482-32.383-215.689-12.627-34.962 9.839-33.515 64.118-59.057 89.94-37.562 37.975-75.155 114.697-125.381 96.522-54.769-19.818-39.329-107.343-57.471-162.689-9.615-29.333-15.916-58.453-24.718-88.04-7.365-24.758-11.136-50.07-23.168-72.928-22.385-42.525-87.564-72.055-77.935-119.137z" fill="#fff"/></g><g opacity=".1" filter="url(#filter1_f_205_27252)" clip-path="url(#clip1_205_27252)"><path fill-rule="evenodd" clip-rule="evenodd" d="M1578.72 1091.94c76.7 3.61 136.76-162.503 194.73-112.149 60.51 52.549-61.88 145.489-64.13 225.599-1.11 39.78 49.96 63.23 54.92 102.72 7.12 56.7 15.75 122.3-21.19 165.9-38.15 45.02-106.62 65.35-164.33 53.06-55.32-11.77-71.22-85.57-120.31-113.66-59.75-34.21-155.04-5.7-190.91-64.47-34.54-56.59 18.12-126.74 35.08-190.84 18.22-68.89-1.7-180.692 67.6-197.297 81.86-19.613 124.46 127.177 208.54 131.137z" fill="#fff"/></g><path opacity=".04" stroke="#fff" d="M435.5 0v1262M69.5 0v1262M947.5 0v1262m460-1262v1262m383-1262v1262"/><defs><clipPath id="clip0_205_27252"><path fill="#fff" transform="translate(217 2)" d="M0 0h867v411H0z"/></clipPath><clipPath id="clip1_205_27252"><path fill="#fff" transform="translate(1069 788)" d="M0 0h851v474H0z"/></clipPath><filter id="filter0_f_205_27252" x="253.218" y="-473.753" width="812.979" height="864.452" filterUnits="userSpaceOnUse" color-interpolation-filters="sRGB"><feFlood flood-opacity="0" result="BackgroundImageFix"/><feBlend in="SourceGraphic" in2="BackgroundImageFix" result="shape"/><feGaussianBlur stdDeviation="50" result="effect1_foregroundBlur_205_27252"/></filter><filter id="filter1_f_205_27252" x="1156" y="859" width="734.234" height="771.6" filterUnits="userSpaceOnUse" color-interpolation-filters="sRGB"><feFlood flood-opacity="0" result="BackgroundImageFix"/><feBlend in="SourceGraphic" in2="BackgroundImageFix" result="shape"/><feGaussianBlur stdDeviation="50" result="effect1_foregroundBlur_205_27252"/></filter></defs></svg>