<svg width="18" height="18" fill="none" xmlns="http://www.w3.org/2000/svg"><path d="M8.461 2.59c.173-.35.26-.525.377-.58a.375.375 0 01.322 0c.118.055.204.23.377.58l1.64 3.323a.819.819 0 00.114.195.374.374 0 00.117.085.82.82 0 00.22.048l3.669.536c.386.057.58.085.669.18a.375.375 0 01.1.306c-.018.13-.158.265-.437.538l-2.654 2.584a.767.767 0 00-.15.169.377.377 0 00-.045.137c-.007.055.003.112.022.225l.627 3.651c.066.385.098.578.037.692a.375.375 0 01-.262.19c-.128.023-.3-.068-.646-.25l-3.28-1.724a.82.82 0 00-.207-.091.377.377 0 00-.144 0c-.054.01-.105.037-.207.09L5.44 15.2c-.346.181-.518.272-.646.248a.375.375 0 01-.261-.19c-.062-.113-.03-.306.037-.691l.626-3.65a.82.82 0 00.022-.226.375.375 0 00-.044-.137.822.822 0 00-.151-.169L2.369 7.801c-.28-.273-.42-.409-.436-.538a.375.375 0 01.1-.307c.089-.094.282-.122.668-.179l3.669-.536a.82.82 0 00.22-.048.375.375 0 00.117-.085.82.82 0 00.114-.195l1.64-3.323z" fill="#FFA017"/></svg>