<svg width="36" height="36" fill="none" xmlns="http://www.w3.org/2000/svg"><ellipse cx="17.884" cy="18" rx="17.337" ry="17.21" fill="#545454"/><path d="M27.076 13.611c-.607.258-1.3.43-1.994.517.694-.43 1.3-1.119 1.56-1.893-.693.43-1.386.688-2.253.86-.607-.688-1.56-1.119-2.514-1.119-1.907 0-3.467 1.55-3.467 3.442 0 .259 0 .517.086.775a10.243 10.243 0 01-7.194-3.614c-.26.516-.434 1.118-.434 1.72a3.32 3.32 0 001.56 2.84 3.01 3.01 0 01-1.56-.43c0 1.635 1.214 3.098 2.774 3.356-.26.086-.607.086-.954.086-.26 0-.433 0-.693-.086a3.457 3.457 0 003.294 2.41c-1.214.946-2.687 1.463-4.334 1.463-.26 0-.52 0-.867-.086 1.56.946 3.38 1.549 5.374 1.549 6.415 0 9.882-5.25 9.882-9.81v-.43c.694-.259 1.3-.861 1.734-1.55z" fill="#fff"/></svg>