<svg width="20" height="20" fill="none" xmlns="http://www.w3.org/2000/svg"><path d="M2.017 10.594c-.114-.18-.17-.27-.202-.408a.977.977 0 010-.372c.032-.139.088-.229.202-.408.938-1.485 3.73-5.24 7.983-5.24 4.255 0 7.046 3.755 7.984 5.24.113.18.17.27.202.408a.976.976 0 010 .372c-.032.139-.089.229-.202.408-.938 1.485-3.73 5.24-7.984 5.24s-7.045-3.755-7.983-5.24z" stroke="#798599" stroke-width="2" stroke-linecap="round" stroke-linejoin="round"/><path d="M10 12.5a2.5 2.5 0 100-5 2.5 2.5 0 000 5z" stroke="#798599" stroke-width="2" stroke-linecap="round" stroke-linejoin="round"/></svg>