<svg width="34" height="34" fill="none" xmlns="http://www.w3.org/2000/svg"><path d="M22.337.167H12.002C2.575.167.335 2.405.335 11.832v10.336c0 9.427 2.239 11.665 11.665 11.665h10.336c9.427 0 11.666-2.238 11.666-11.665V11.832c0-9.427-2.24-11.665-11.666-11.665zm5.185 24.02h-2.458c-.926 0-1.212-.757-2.845-2.423-1.48-1.397-2.12-1.6-2.474-1.6-.488 0-.64.135-.64.842v2.206c0 .589-.185.959-1.75.959-2.593 0-5.471-1.582-7.491-4.494-3.047-4.276-3.872-7.508-3.872-8.148 0-.353.118-.69.825-.69H9.29c.623 0 .859.27 1.095.943 1.212 3.535 3.232 6.565 4.056 6.565.32 0 .455-.152.455-.926V13.8c-.084-1.649-.976-1.8-.976-2.39 0-.303.235-.572.622-.572h3.855c.522 0 .707.27.707.909v4.865c0 .522.219.707.387.707.303 0 .573-.185 1.128-.758 1.768-1.97 3.03-5.016 3.03-5.016.169-.353.438-.69 1.094-.69h2.408c.74 0 .909.387.74.909-.303 1.43-3.3 5.656-3.265 5.656-.27.42-.37.606 0 1.094.252.354 1.11 1.094 1.683 1.75 1.044 1.196 1.852 2.189 2.07 2.88.186.69-.151 1.043-.858 1.043z" fill="#545454"/></svg>